<?xml version="1.0" encoding="utf-8"?>
<!-- Generator: Adobe Illustrator 19.0.0, SVG Export Plug-In . SVG Version: 6.00 Build 0)  -->
<!DOCTYPE svg PUBLIC "-//W3C//DTD SVG 1.1//EN" "http://www.w3.org/Graphics/SVG/1.1/DTD/svg11.dtd">
<svg version="1.1" id="Layer_1" xmlns="http://www.w3.org/2000/svg" xmlns:xlink="http://www.w3.org/1999/xlink" x="0px" y="0px"
	 viewBox="0 0 268 238" enable-background="new 0 0 268 238" xml:space="preserve">
<g>
	<path fill="#FFFFFF" d="M43.3,76.2c-6,12.6-11.7,24.5-17.6,36.7c-7.9-3.7-15.7-7.4-23.6-11.1c0.4-0.8,0.8-1.6,1.2-2.2
		c9-15.1,17.9-30.2,26.8-45.3c4-6.7,9.8-10.5,17.3-12.3c3.3-0.8,6.4-3,9.3-4.9c3.3-2.2,6.2-4.7,9.3-7.2c0.5-0.4,0.8-1,1.1-1.6
		c1.5-2.6,3-5.3,4.5-7.9c0.6-1,1.4-1.9,1.7-3c0.5-2-0.7-3.7-2.6-4.2c-1.9-0.4-3.4,0.7-4.1,2.7c-0.5,1.3-1.1,2.9-2.2,3.6
		c-2.2,1.4-4.7-0.8-4.6-3.7c0.3-5.8,5.7-10.2,11.6-9.4c5.5,0.7,9.8,6.3,8.5,11.7c-0.6,2.4-2.2,4.6-3.5,6.8c-0.8,1.4-1.9,2.7-3,4.2
		c1.2,0.6,2.1,1.2,3.1,1.6c7,3.5,13.9,7.1,20.9,10.6c0.9,0.4,1.8,0.7,2.8,1c6.2,1.4,11.4,4.5,14.7,9.9c9.9,16.3,19.5,32.7,29.4,49.4
		c-7.9,3.7-15.7,7.4-23.7,11.2c-5.8-12.1-11.6-24.1-17.3-36.1c-0.2,0-0.4,0.1-0.7,0.1c-1.5,9.9-2.7,19.9-4.5,29.8
		c-3.2,17.8,0.3,35,4.4,52.1c5,21.5,10.7,42.8,16.1,64.1c1.4,5.6-1,8.8-6.9,8.8c-25.7,0-51.5,0-77.2,0c-6.1,0-8.4-3.1-6.8-9
		c7-25.5,13.5-51.2,18.8-77.1c3.2-15.5,3.2-30.9,0.5-46.4C46,92.5,45,85.8,43.9,79C43.8,78.3,43.6,77.6,43.3,76.2z M73.3,77.2
		c6.8-10.1,13.3-19.9,20-30C85.7,43,78.4,39,71,35c-0.4-0.2-1.2-0.1-1.6,0.2c-5.6,3.6-11.1,7.3-16.8,11.1
		C59.6,56.6,66.3,66.7,73.3,77.2z"/>
	<path fill="#FFFFFF" d="M242.5,231.2c-6.1,0-11.7,0-17.8,0c-4.6-40.4-9.3-80.8-13.9-121.2c-0.1,0-0.3,0-0.4,0
		c-4.6,40.4-9.3,80.7-13.9,121.2c-5.9,0-11.6,0-17.8,0c-0.9-51.7-1.8-103.3-2.7-155.2c3.2,0,6.2,0,9.4,0c0-3,0-5.6,0-8.6
		c-0.9,0-1.7-0.1-2.6-0.1c-7.2-0.1-14.5-0.3-21.7-0.4c-0.9,0-1.8-0.2-2.7-0.4c-3.1-1-3.9-3.6-1.6-5.9c1.8-1.7,3.9-3.2,6-4.5
		c14.1-8.5,28.3-16.9,42.5-25.2c1.4-0.8,2-1.8,2.7-3.3c1.1-2.4,2.8-4.5,4.1-6.8c0.7-1.2,1.5-2.4,1.7-3.7c0.2-1.8-0.9-3-2.7-3.3
		c-1.8-0.3-3.1,0.4-3.8,2.1c-0.2,0.5-0.3,1-0.4,1.5c-0.3,2.2-1.6,3.3-3.8,3c-2.2-0.3-3-1.9-2.8-4c0.4-4.1,2.5-7,6.3-8.6
		c4-1.7,7.7-0.9,10.9,2c3.2,3.1,4,6.9,2.5,11c-0.6,1.7-1.8,3.1-2.8,4.6c-0.9,1.4-2,2.8-3.1,4.3c1,0.6,1.7,1.1,2.4,1.5
		c13.9,8.2,27.8,16.4,41.7,24.7c2.2,1.3,4.4,2.8,6.2,4.6c2.5,2.3,1.8,5.2-1.6,6c-2.8,0.6-5.8,0.7-8.7,0.8c-4.8,0.1-9.6,0-14.6,0
		c0,3,0,5.7,0,8.7c1.8,0,3.6,0,5.7,0C244.3,127.7,243.4,179.3,242.5,231.2z M257.4,61.8c-0.7-0.5-0.9-0.8-1.2-0.9
		C241.5,52.5,226.8,44.2,212,36c-0.8-0.4-2.3-0.3-3.1,0.2c-14.4,8-28.7,16.1-43,24.2c-0.5,0.3-1,0.7-2,1.4
		C195.3,61.8,226,61.8,257.4,61.8z M235.6,67.5c-15.5,0-30.8,0-46.2,0c0,2.8,0,5.4,0,8.2c15.5,0,30.8,0,46.2,0
		C235.6,72.9,235.6,70.3,235.6,67.5z"/>
</g>
</svg>
