<?xml version="1.0" encoding="utf-8"?>
<!-- Generator: Adobe Illustrator 19.0.0, SVG Export Plug-In . SVG Version: 6.00 Build 0)  -->
<!DOCTYPE svg PUBLIC "-//W3C//DTD SVG 1.1//EN" "http://www.w3.org/Graphics/SVG/1.1/DTD/svg11.dtd">
<svg version="1.1" id="Layer_1" xmlns="http://www.w3.org/2000/svg" xmlns:xlink="http://www.w3.org/1999/xlink" x="0px" y="0px"
	 viewBox="0 0 268 238" enable-background="new 0 0 268 238" xml:space="preserve">
<path fill="#FFFFFF" d="M237.8,184.3c-2.2-15.9-4.4-31.8-6.8-47.7c-1-6.7-2.1-13.5-4-20c-5-16.6-10.5-33-15.9-49.5
	c-2.8-8.4-5.8-16.6-8.7-24.9c-0.7-1.9-1.7-3.5-3.5-4.4c-2.9-1.7-5.8-3.5-8.9-4.8c-7.3-3.3-15.1-5-23-6.1c-1.6-0.2-2.7-0.6-3.3-2.4
	c-0.7-2.2-2.4-3.7-4.7-4.2c-11.7-2.7-23.5-4.1-35.5-2.1c-3.1,0.5-6.5,0.7-8.3,3.8c-1.1,1.8-2.7,2.5-4.7,2.9
	c-10.3,2.1-20.4,4.7-30.2,8.3c-6,2.2-10.1,5.7-12.4,11.8c-6.5,17.2-13.4,34.3-20.1,51.5c-2.5,6.4-5.2,12.8-6.7,19.5
	c-3.7,15.9-5.1,32.1-7.2,48.3c-1.3,10.7-2.5,21.3-3.7,32c-0.4,3.3-0.7,6.7-1.1,10.2c7.9,1.2,15.6,2.3,23.3,3.4
	c1.3-9.1,2.5-17.9,3.8-26.7c2.4-15.9,5.1-31.7,9.1-47.3c1-4.1,2-8.3,3.8-12.1c5.5-11.7,11.4-23.2,17.2-34.8c0.2-0.5,0.5-1,1-1.9
	c0.3,1.9,0.5,3.4,0.8,4.8c2,9.8,4.2,19.6,6.1,29.5c1.8,8.9,2.5,17.9,1.5,26.9c-0.9,7.4-1.9,14.7-2.9,22c-1.7,12.4-3.3,24.7-5,37.1
	c-0.4,3.2-0.8,6.4-1.2,9.6c0.4,0.1,0.7,0.2,0.9,0.2c4.7,0.6,9.4,1.2,14.1,1.7c11.6,1.2,23.1,1.9,34.8,1.8c1.2,0,1.8-0.5,2-1.6
	c0.3-1.7,0.7-3.5,1-5.2c0.4-2.9,0.7-5.8,1-8.7c0.6,0.9,0.8,1.8,0.9,2.7c0.5,3.8,1,7.6,1.5,11.3c0.2,1.3,0.8,1.8,2.1,1.7
	c13.8-0.6,27.5-1.8,41.1-3.8c3.7-0.6,7.3-1.4,10.9-2.2c1.2-0.2,1.8-0.8,1.6-2.2c-0.5-2.8-0.8-5.6-1.2-8.4
	c-2.9-16.3-7-32.3-11.3-48.3c-1.2-4.7-3.1-9.3-3.6-14c-0.5-5.5-0.2-11.1,0.4-16.5c1.3-10.4,3-20.7,4.6-31.1c0.5-3.5,1.3-7,1.9-10.4
	c2.1,4.4,4,8.8,5.6,13.3c3.6,9.9,7.7,19.6,10.4,29.8c5,19.4,7.4,39.2,10.4,59c0.6,3.6,1.1,7.3,1.6,11.1c7.3-1.1,14.4-2.1,21.7-3.2
	C238.5,190.5,238.2,187.4,237.8,184.3z M93.3,101.6l-0.9-0.3l0.5-1.9l0.9,0.3L93.3,101.6z M94.7,96.1l-0.9-0.3l1-3.6l0.9,0.3
	L94.7,96.1z M96.7,88.9l-0.9-0.3l1-3.6l0.9,0.3L96.7,88.9z M98.6,81.7l-0.9-0.3l1-3.6l0.9,0.3L98.6,81.7z M100.5,74.4l-0.9-0.3
	l1-3.6l0.9,0.3L100.5,74.4z M102.5,67.2l-0.9-0.3l1-3.6l0.9,0.3L102.5,67.2z M104.4,60l-0.9-0.3l1-3.6l0.9,0.3L104.4,60z
	 M106.3,52.8l-0.9-0.3l1-3.6l0.9,0.3L106.3,52.8z M108.3,45.5l-0.9-0.3l1-3.6l0.9,0.3L108.3,45.5z M110.2,38.3l-0.9-0.3l1-3.6
	l0.9,0.3L110.2,38.3z M112.1,31.1l-0.9-0.3l0.5-1.9l0.9,0.3L112.1,31.1z"/>
</svg>
