<?xml version="1.0" encoding="utf-8"?>
<!-- Generator: Adobe Illustrator 19.0.0, SVG Export Plug-In . SVG Version: 6.00 Build 0)  -->
<!DOCTYPE svg PUBLIC "-//W3C//DTD SVG 1.1//EN" "http://www.w3.org/Graphics/SVG/1.1/DTD/svg11.dtd">
<svg version="1.1" id="Layer_1" xmlns="http://www.w3.org/2000/svg" xmlns:xlink="http://www.w3.org/1999/xlink" x="0px" y="0px"
	 viewBox="0 0 268 238" enable-background="new 0 0 268 238" xml:space="preserve">
<g>
	<path fill="#FFFFFF" d="M213.5,224.5c-53.2,0-106.2,0-159.4,0c0-0.7,0-1.4,0-2c0-52.4,0-104.8,0-157.3c0-5.8,2.7-8.5,8.5-8.5
		c47.6,0,95.2,0,142.8,0c4.2,0,7,1.9,7.9,5.5c0.2,0.8,0.2,1.6,0.2,2.4c0,52.8,0,105.6,0,158.4C213.5,223.4,213.5,223.9,213.5,224.5z
		 M184.3,136.6c0-28.4-22.9-51.5-51.1-51.5c-28.4-0.1-51.5,22.9-51.5,51.3c0,28.6,22.9,51.7,51.3,51.7
		C161.3,188,184.3,165,184.3,136.6z"/>
	<path fill="#FFFFFF" d="M213.8,45.4c-53.2,0-106.1,0-159.2,0c0-0.6-0.1-1.1-0.1-1.6c0-7.4,0-14.8,0-22.2c0-5.1,2.9-8,8-8
		c47.8,0,95.6,0,143.4,0c5.1,0,8,2.9,8,8c0,7.5,0,14.9,0,22.4C213.9,44.3,213.8,44.8,213.8,45.4z M93.5,29.6c0,4.4,3.6,8.1,7.9,8
		c4.3-0.1,7.9-3.7,7.9-8.1c0-4.3-3.6-7.9-7.9-7.9C97.1,21.6,93.5,25.2,93.5,29.6z M85.9,29.7c0-4.4-3.5-8.1-7.9-8.1
		c-4.3,0-7.9,3.5-8,7.9c-0.1,4.3,3.5,8.1,7.8,8.1C82.3,37.7,85.9,34.1,85.9,29.7z"/>
	<path fill="#FFFFFF" d="M91.7,122.7c6.7,6.3,15.4,5.7,21,1c6.2,4.9,14.3,4.8,20.2-0.3c2.9,2.6,6.4,4,10.4,3.9
		c3.9,0,7.3-1.4,10.3-4.1c6.9,5.5,13.9,5.5,20.9,0.2c4.2,12.8,1.4,32.5-14.3,45.3c-15.2,12.3-36.6,12.9-52.5,1.4
		C91.2,158.2,86.9,138.3,91.7,122.7z"/>
</g>
</svg>
