<?xml version="1.0" encoding="utf-8"?>
<!-- Generator: Adobe Illustrator 18.1.1, SVG Export Plug-In . SVG Version: 6.00 Build 0)  -->
<!DOCTYPE svg PUBLIC "-//W3C//DTD SVG 1.1//EN" "http://www.w3.org/Graphics/SVG/1.1/DTD/svg11.dtd">
<svg version="1.1" id="Layer_1" xmlns="http://www.w3.org/2000/svg" xmlns:xlink="http://www.w3.org/1999/xlink" x="0px" y="0px"
	 viewBox="0 0 317.7 123.5" enable-background="new 0 0 317.7 123.5" xml:space="preserve">
<g>
	<path fill="#FFFFFF" d="M0,83.1V0h23.1v82.7c0,11.2,4.2,15.9,15.2,15.9h36.6v22.7H38.1C13.3,121.4,0,106.3,0,83.1z"/>
	<path fill="#FFFFFF" d="M230,79.8c0,24.3-18,43.7-44.1,43.7c-13.3,0-25-6.1-32.4-15.7c-7.5,9.6-18.9,15.7-32.4,15.7
		c-25.9,0-43.9-19.4-43.9-43.7V0h22.9v79.9c0,11.5,8.2,21,21,21c12.6,0,20.8-9.4,20.8-21V0h23.3v79.9c0,11.5,8.2,21,20.6,21
		c12.6,0,21-9.4,21-21V0H230V79.8z"/>
	<path fill="#FFFFFF" d="M242.8,83.1V0h23.1v82.7c0,11.2,4.2,15.9,15.2,15.9h36.6v22.7h-36.7C256.1,121.4,242.8,106.3,242.8,83.1z"
		/>
</g>
</svg>
